<?xml version="1.0" encoding="UTF-8" standalone="no"?>
<!DOCTYPE svg PUBLIC "-//W3C//DTD SVG 1.1//EN" "http://www.w3.org/Graphics/SVG/1.1/DTD/svg11.dtd">
<svg width="100%" height="100%" viewBox="0 0 1080 1080" version="1.1" xmlns="http://www.w3.org/2000/svg" xmlns:xlink="http://www.w3.org/1999/xlink" xml:space="preserve" xmlns:serif="http://www.serif.com/" style="fill-rule:evenodd;clip-rule:evenodd;stroke-linejoin:round;stroke-miterlimit:2;">
    <g transform="matrix(10.928101,3.876248,-3.876248,10.928101,-1669.544486,-6132.451102)">
        <path d="M348.198,508.269C350.811,505.531 353.828,503.353 357.25,501.736C360.673,500.118 364.281,498.687 368.076,497.443C371.872,496.198 375.729,495.016 379.649,493.896C383.569,492.776 387.333,491.345 390.942,489.603C393.679,488.732 395.764,488.141 397.195,487.83C398.626,487.519 400.399,487.363 402.514,487.363C404.132,487.363 405.936,487.674 407.927,488.297C409.918,488.919 411.038,490.163 411.287,492.03C411.163,492.527 410.82,493.492 410.261,494.923C409.701,496.354 409.296,497.194 409.047,497.443C408.798,497.692 408.207,498.127 407.274,498.749C406.341,499.371 405.625,499.807 405.128,500.056C401.146,500.678 397.195,501.767 393.275,503.322C389.355,504.878 385.435,506.527 381.516,508.269C377.596,510.011 373.676,511.597 369.756,513.028C365.837,514.459 361.886,515.362 357.904,515.735C355.788,515.735 353.642,515.082 351.464,513.775C349.287,512.468 348.198,510.633 348.198,508.269Z" style="fill:white;"/>
    </g>
    <g transform="matrix(10.928101,3.876248,-3.876248,10.928101,-1698.993625,-6132.451102)">
        <path d="M339.612,485.87C339.363,483.506 339.923,481.857 341.291,480.924C342.66,479.99 344.216,479.275 345.958,478.777C348.695,477.782 351.526,476.848 354.451,475.977C357.375,475.106 360.921,474.204 365.09,473.271C369.259,472.338 374.267,471.218 380.116,469.911C385.964,468.604 393.182,467.018 401.768,465.151L402.701,465.151C403.199,465.151 403.79,465.276 404.474,465.525C405.159,465.774 405.843,466.116 406.527,466.551C407.212,466.987 407.803,467.453 408.301,467.951C408.798,468.449 409.047,468.947 409.047,469.444C409.047,471.062 408.612,472.586 407.741,474.017C406.87,475.448 405.75,476.475 404.381,477.097C395.421,480.333 386.555,482.915 377.783,484.843C369.01,486.772 360.144,489.23 351.184,492.216C350.313,492.216 349.224,492.092 347.918,491.843C346.611,491.594 345.367,491.221 344.185,490.723C343.002,490.225 341.976,489.572 341.105,488.763C340.234,487.954 339.736,486.99 339.612,485.87Z" style="fill:white;"/>
    </g>
    <g transform="matrix(12.54081,1.582496,-1.582496,12.54081,-4406.49482,-6608.8002)">
        <path d="M424.913,492.776C424.913,490.661 425.66,489.136 427.153,488.203C428.646,487.27 430.264,486.617 432.006,486.243L478.856,481.577C480.972,481.577 482.963,481.95 484.829,482.697C486.696,483.444 487.629,485.061 487.629,487.55C487.629,488.172 487.225,488.857 486.416,489.603C485.607,490.35 484.705,491.034 483.709,491.656C482.714,492.279 481.656,492.807 480.536,493.243C479.416,493.678 478.607,493.772 478.11,493.523L432.006,498.563C430.388,498.563 428.802,498.034 427.246,496.976C425.691,495.918 424.913,494.518 424.913,492.776Z" style="fill:white;fill-rule:nonzero;"/>
    </g>
</svg>
